<svg width="1142" height="496" viewBox="0 0 1142 496" fill="none" xmlns="http://www.w3.org/2000/svg">
<g clip-path="url(#clip0_2_432)">
<path d="M129 42V132H245.6V170H79V42H129ZM445.519 97V42H495.519V106C495.519 117.333 493.385 127 489.119 135C484.985 142.867 479.185 149.4 471.719 154.6C464.252 159.667 455.652 163.6 445.919 166.4C436.185 169.2 425.719 171.133 414.519 172.2C403.452 173.4 392.185 174 380.719 174C368.585 174 356.852 173.4 345.519 172.2C334.185 171.133 323.652 169.2 313.919 166.4C304.319 163.6 295.919 159.667 288.719 154.6C281.519 149.4 275.852 142.867 271.719 135C267.719 127 265.719 117.333 265.719 106V42H315.719V97C315.719 107.667 318.319 115.8 323.519 121.4C328.719 127 336.119 130.867 345.719 133C355.452 135 367.119 136 380.719 136C393.919 136 405.385 135 415.119 133C424.852 130.867 432.319 127 437.519 121.4C442.852 115.8 445.519 107.667 445.519 97ZM523.531 170V42H649.531C675.398 42 694.465 44.5333 706.731 49.6C718.998 54.6667 725.131 63.4667 725.131 76C725.131 84 722.465 90.1333 717.131 94.4C711.931 98.6667 704.398 101.667 694.531 103.4C684.798 105 673.065 106 659.331 106.4L660.931 104.8C670.931 104.8 680.198 105.067 688.731 105.6C697.265 106.133 704.731 107.333 711.131 109.2C717.531 111.067 722.531 113.933 726.131 117.8C729.731 121.667 731.531 127 731.531 133.8C731.531 142.067 728.598 148.867 722.731 154.2C716.865 159.533 708.531 163.533 697.731 166.2C686.931 168.733 674.198 170 659.531 170H523.531ZM573.531 132.4H659.531C666.598 132.4 671.665 131.733 674.731 130.4C677.931 129.067 679.531 126.933 679.531 124C679.531 122 678.798 120.4 677.331 119.2C675.998 118 673.865 117.133 670.931 116.6C667.998 115.933 664.198 115.6 659.531 115.6H573.531V132.4ZM573.531 96.4H651.131C658.198 96.4 663.265 95.7333 666.331 94.4C669.531 93.0667 671.131 90.9333 671.131 88C671.131 84.9333 669.531 82.8 666.331 81.6C663.265 80.2667 658.198 79.6 651.131 79.6H573.531V96.4ZM754.461 42H804.461V170H754.461V42ZM868.245 150.6V120.6H1005.05V150.6H868.245ZM823.445 170L909.245 42H964.845L1051.45 170H996.445L922.245 55.4H952.045L878.445 170H823.445Z" fill="white"/>
<path d="M246.975 265.285C246.492 274.468 243.157 282.153 236.97 288.34C230.783 294.527 221.648 299.167 209.565 302.26C197.578 305.353 182.402 306.9 164.035 306.9C150.018 306.9 137.452 306.127 126.335 304.58C115.218 303.13 105.745 300.617 97.915 297.04C90.085 293.367 84.0917 288.388 79.935 282.105C75.7783 275.822 73.7 267.895 73.7 258.325C73.7 248.755 75.7783 240.78 79.935 234.4C84.0917 227.923 90.085 222.8 97.915 219.03C105.745 215.163 115.218 212.408 126.335 210.765C137.452 209.122 150.018 208.3 164.035 208.3C182.402 208.3 197.627 209.992 209.71 213.375C221.793 216.662 230.928 221.543 237.115 228.02C243.302 234.497 246.637 242.375 247.12 251.655H209.42C208.26 248.562 206.133 245.855 203.04 243.535C199.947 241.118 195.307 239.233 189.12 237.88C182.933 236.527 174.572 235.85 164.035 235.85C151.662 235.85 141.608 236.623 133.875 238.17C126.142 239.62 120.487 241.988 116.91 245.275C113.333 248.562 111.545 252.912 111.545 258.325C111.545 263.255 113.333 267.267 116.91 270.36C120.487 273.453 126.142 275.725 133.875 277.175C141.608 278.625 151.662 279.35 164.035 279.35C174.572 279.35 182.885 278.722 188.975 277.465C195.162 276.208 199.802 274.517 202.895 272.39C205.988 270.167 208.115 267.798 209.275 265.285H246.975ZM396.384 251.075V211.2H432.634V257.6C432.634 265.817 431.087 272.825 427.994 278.625C424.997 284.328 420.792 289.065 415.379 292.835C409.966 296.508 403.731 299.36 396.674 301.39C389.617 303.42 382.029 304.822 373.909 305.595C365.886 306.465 357.717 306.9 349.404 306.9C340.607 306.9 332.101 306.465 323.884 305.595C315.667 304.822 308.031 303.42 300.974 301.39C294.014 299.36 287.924 296.508 282.704 292.835C277.484 289.065 273.376 284.328 270.379 278.625C267.479 272.825 266.029 265.817 266.029 257.6V211.2H302.279V251.075C302.279 258.808 304.164 264.705 307.934 268.765C311.704 272.825 317.069 275.628 324.029 277.175C331.086 278.625 339.544 279.35 349.404 279.35C358.974 279.35 367.287 278.625 374.344 277.175C381.401 275.628 386.814 272.825 390.584 268.765C394.451 264.705 396.384 258.808 396.384 251.075ZM624.768 265.285C624.285 274.468 620.95 282.153 614.763 288.34C608.576 294.527 599.441 299.167 587.358 302.26C575.371 305.353 560.195 306.9 541.828 306.9C527.811 306.9 515.245 306.127 504.128 304.58C493.011 303.13 483.538 300.617 475.708 297.04C467.878 293.367 461.885 288.388 457.728 282.105C453.571 275.822 451.493 267.895 451.493 258.325C451.493 248.755 453.571 240.78 457.728 234.4C461.885 227.923 467.878 222.8 475.708 219.03C483.538 215.163 493.011 212.408 504.128 210.765C515.245 209.122 527.811 208.3 541.828 208.3C560.195 208.3 575.42 209.992 587.503 213.375C599.586 216.662 608.721 221.543 614.908 228.02C621.095 234.497 624.43 242.375 624.913 251.655H587.213C586.053 248.562 583.926 245.855 580.833 243.535C577.74 241.118 573.1 239.233 566.913 237.88C560.726 236.527 552.365 235.85 541.828 235.85C529.455 235.85 519.401 236.623 511.668 238.17C503.935 239.62 498.28 241.988 494.703 245.275C491.126 248.562 489.338 252.912 489.338 258.325C489.338 263.255 491.126 267.267 494.703 270.36C498.28 273.453 503.935 275.725 511.668 277.175C519.401 278.625 529.455 279.35 541.828 279.35C552.365 279.35 560.678 278.722 566.768 277.465C572.955 276.208 577.595 274.517 580.688 272.39C583.781 270.167 585.908 267.798 587.068 265.285H624.768ZM645.997 211.2H682.247V304H645.997V211.2ZM850.146 275.58L836.661 283.265V211.2H872.911V304H836.661L727.476 240.78L740.961 232.95V304H704.711V211.2H740.961L850.146 275.58ZM929.432 264.85V276.45H1039.63V304H893.182V211.2H1039.34V238.75H929.432V250.35H1019.33V264.85H929.432Z" fill="white"/>
<rect x="747" y="406" width="302" height="35" fill="#FF0101"/>
<rect x="367" y="407" width="380" height="35" fill="white"/>
<rect x="65" y="407" width="302" height="35" fill="#37A72D"/>
</g>
<defs>
<clipPath id="clip0_2_432">
<rect width="1920" height="960" fill="white" transform="translate(-234 -95)"/>
</clipPath>
</defs>
</svg>
